<?xml version="1.0" encoding="UTF-8" standalone="no"?>
<!-- Created with Inkscape (http://www.inkscape.org/) -->

<svg
   xmlns:dc="http://purl.org/dc/elements/1.1/"
   xmlns:cc="http://creativecommons.org/ns#"
   xmlns:rdf="http://www.w3.org/1999/02/22-rdf-syntax-ns#"
   xmlns:svg="http://www.w3.org/2000/svg"
   xmlns="http://www.w3.org/2000/svg"
   xmlns:sodipodi="http://sodipodi.sourceforge.net/DTD/sodipodi-0.dtd"
   xmlns:inkscape="http://www.inkscape.org/namespaces/inkscape"
   width="310"
   height="55"
   id="svg2"
   version="1.1"
   inkscape:version="0.48.5 r10040"
   sodipodi:docname="logo.svg">
  <defs
     id="defs4" />
  <sodipodi:namedview
     id="base"
     pagecolor="#ffffff"
     bordercolor="#666666"
     borderopacity="1.0"
     inkscape:pageopacity="0.0"
     inkscape:pageshadow="2"
     inkscape:zoom="2.8284271"
     inkscape:cx="187.99173"
     inkscape:cy="39.757752"
     inkscape:document-units="px"
     inkscape:current-layer="layer1"
     showgrid="false"
     inkscape:showpageshadow="false"
     inkscape:window-width="1914"
     inkscape:window-height="1055"
     inkscape:window-x="0"
     inkscape:window-y="0"
     inkscape:window-maximized="1" />
  <metadata
     id="metadata7">
    <rdf:RDF>
      <cc:Work
         rdf:about="">
        <dc:format>image/svg+xml</dc:format>
        <dc:type
           rdf:resource="http://purl.org/dc/dcmitype/StillImage" />
        <dc:title />
      </cc:Work>
    </rdf:RDF>
  </metadata>
  <g
     inkscape:label="Capa 1"
     inkscape:groupmode="layer"
     id="layer1"
     transform="translate(0,-997.3622)">
    <path
       inkscape:connector-curvature="0"
       id="path3022"
       style="font-size:48px;font-style:normal;font-variant:normal;font-weight:normal;font-stretch:normal;text-align:start;line-height:125%;letter-spacing:-2px;word-spacing:0px;writing-mode:lr-tb;text-anchor:start;fill:#214478;fill-opacity:1;stroke:none;font-family:Bodoni;-inkscape-font-specification:Bodoni"
       d="m 247.86833,1027.5803 -0.86401,0 0,2.016 c 0,2.832 -0.672,4.752 -2.06399,5.904 -1.72801,1.392 -4.56002,1.824 -11.328,1.824 l -4.80001,0 0,-30.384 5.328,0 0,-0.816 -14.64,0 0,0.816 4.656,0 0,30.384 -4.656,0 0,0.816 28.368,0 0,-10.56" />
    <path
       style="font-size:48px;font-style:normal;font-variant:normal;font-weight:normal;font-stretch:normal;text-align:start;line-height:125%;letter-spacing:-2px;word-spacing:0px;writing-mode:lr-tb;text-anchor:start;fill:#214478;fill-opacity:1;stroke:none;font-family:Bodoni;-inkscape-font-specification:Bodoni"
       d="m 289.49471,1004.3153 c -0.624,1.2 -1.20725,1.5313 -3.03125,1.5313 l -4.15625,0 0,0.75 3.6875,0 0,30.7187 -1.96875,0 -1.71875,0 -1.96875,0 0,-12.375 c 0,-4.128 -2.1655,-6.1875 -6.4375,-6.1875 -3.6,0 -6.43275,1.6178 -7.96875,4.5938 l 0,-5.0938 c -0.576,1.008 -1.24075,1.3125 -2.96875,1.3125 l -4.5625,0 0,0.8125 3.6875,0 0,16.9375 -2.78125,0 -0.90625,0 -2.8125,0 0,-19.1875 c -0.624,1.152 -1.176,1.4375 -3,1.4375 l -4.53125,0 0,0.8125 3.65625,0 0,16.9375 -3.6875,0 0,0.8125 10.375,0 0.90625,0 10.375,0 0,-0.8125 -3.75,0 0,-12.375 c 1.248,-3.216 4.22375,-5.375 7.34375,-5.375 2.256,0 3.125,0.9973 3.125,3.7813 l 0,13.9687 -3.71875,0 0,0.8125 9.625,0 1.71875,0 8.96875,0 0,-0.8125 -3.5,0 0,-6.125 1.625,-1.5937 5.90625,7.7187 -3.21875,0 0,0.8125 12.0625,0 0,-0.8125 -3.9375,0 -8.125,-10.5 3.84375,-3.75 c 1.392,-1.344 2.59225,-2.6875 4.65625,-2.6875 l 1.84375,0 0,-0.8125 -9.90625,0 0,0.8125 2.25,0 c 1.008,0 1.5,0.1328 1.5,0.4688 0,0.336 -0.94625,1.6337 -1.90625,2.5937 l -6.59375,6.5313 0,-25.6563 z m -35.8125,1.2188 c -1.2,0 -2.21875,1.0187 -2.21875,2.2187 0,1.248 1.01875,2.25 2.21875,2.25 1.248,0 2.25,-1.002 2.25,-2.25 0,-1.2 -1.002,-2.2187 -2.25,-2.2187 z"
       id="path3024"
       inkscape:connector-curvature="0" />
    <path
       style="font-size:48px;font-style:normal;font-variant:normal;font-weight:normal;font-stretch:normal;text-align:start;line-height:125%;letter-spacing:-2px;word-spacing:0px;writing-mode:lr-tb;text-anchor:start;fill:#000000;fill-opacity:1;stroke:none;font-family:Bodoni;-inkscape-font-specification:Bodoni"
       d="m 135.49471,1012.1903 c -1.2,0 -2.21875,0.9875 -2.21875,2.1875 0,1.248 1.01875,2.2813 2.21875,2.2813 1.248,0 2.25,-1.0333 2.25,-2.2813 0,-1.2 -1.002,-2.1875 -2.25,-2.1875 z m -73.156258,0.5625 0,0.8125 4.65625,0 0,30.4063 -4.65625,0 0,0.8125 14.0625,0 c 5.663994,0 6.554252,-0.2118 8.90625,-1.8438 2.399998,-1.68 3.71875,-4.0597 3.71875,-6.8437 0,-5.808 -4.902005,-7.5925 -9.75,-8.3125 4.655995,-0.288 8.90625,-2.172 8.90625,-7.5 0,-7.296 -9.143005,-7.5313 -14.375,-7.5313 l -11.46875,0 z m 9.3125,0.8125 0.9375,0 c 4.319996,0 5.827752,0.3123 7.84375,1.6563 1.967998,1.296 3,3.2997 3,5.8437 0,2.544 -1.080002,4.5568 -3,5.4688 -1.535998,0.72 -2.897505,0.875 -7.9375,0.875 l -0.84375,0 0,-13.8438 z m 65.750008,11.1875 c -0.624,1.152 -1.20725,1.4375 -3.03125,1.4375 l -4.5,0 0,0.8125 3.65625,0 0,16.9688 -3.6875,0 0,0.8125 11.28125,0 10.375,0 0,-0.8125 -3.75,0 0,-12.4063 c 1.248,-3.216 4.22376,-5.375 7.34376,-5.375 2.256,0 3.125,1.0285 3.125,3.8125 l 0,13.9688 -3.71875,0 0,0.8125 11.34375,0 0,-0.8125 -3.6875,0 0,-12.4063 c 0,-4.128 -2.1655,-6.1875 -6.4375,-6.1875 -3.6,0 -6.43276,1.649 -7.96876,4.625 l 0,-5.0937 c -0.576,1.008 -1.272,1.2812 -3,1.2812 l -4.53125,0 0,0.8125 3.6875,0 0,16.9688 -2.78125,0 -3.71875,0 0,-19.2188 z m -40.781259,0.25 c -0.72,1.056 -0.99975,1.1875 -2.34375,1.1875 l -5.249999,0 0,0.8125 3.71875,0 0,12.0625 c 0,2.304 0.289999,3.2085 1.249999,4.3125 1.152,1.248 3.1525,2.0313 5.312503,2.0313 3.936006,0 6.305506,-1.5418 7.937506,-5.0938 l 0,4.4688 7.53125,0 0,-0.8125 -3.65625,0 0,-18.9688 c -0.864,0.96 -1.3525,1.1875 -2.3125,1.1875 l -5.21875,0 0,0.8125 3.65625,0 0,10.2813 c 0,3.792 -3.47475,7.25 -7.21875,7.25 -2.496009,0 -3.406259,-1.0408 -3.406259,-3.9688 l 0,-15.5625 z m 24.250009,0.1563 c -3.5332,0.2823 -5.84375,2.6737 -5.84375,6.0937 0,3.072 2.02625,5.2188 4.90625,5.2188 l 3.3125,0 c 2.976,0 4.53125,1.2875 4.53125,3.6875 0,2.64 -2.00725,4.4375 -5.03125,4.4375 -3.88799,0 -6.56125,-2.4033 -7.28125,-6.5313 l -0.625,0 0,6.8438 0.625,0 0,-0.2813 c 0,-0.912 0.17625,-1.2812 0.65625,-1.2812 0.912,0 3.063,1.9687 6.375,1.9687 4.176,0 7.25,-2.9535 7.25,-6.9375 0,-3.552 -1.96925,-5.6562 -5.28125,-5.6562 l -3,0 c -3.168,0 -5,-1.2028 -5,-3.2188 0,-2.208 1.9615,-3.6875 4.9375,-3.6875 3.696,0 5.818,1.6735 6.25,4.9375 l 0.71875,0 -0.1875,-5.5625 -0.71875,0 0,0.3438 0,0.094 c 0,0.864 -0.0725,1 -0.3125,1 -0.768,0 -2.7785,-1.4687 -5.5625,-1.4687 -0.246,0 -0.4832,-0.019 -0.71875,0 z m 53.90626,0 c -4.94399,0 -9.5,4.9822 -9.5,10.4062 0,5.376 4.55925,9.8438 10.03125,9.8438 4.41599,0 7.81899,-2.7113 8.87499,-7.0313 l -0.78125,-0.125 c -1.34399,3.984 -3.882,6.375 -8.24999,6.375 -4.94399,0 -5.53125,-3.4512 -5.53125,-7.5312 0,-1.2 0.0937,-2.3625 0.0937,-3.5625 l 13.5,0 c 0.432,0 0.5625,-0.089 0.5625,-0.2813 0,-0.384 -0.3805,-1.4295 -0.8125,-2.4375 -1.63199,-3.456 -4.77949,-5.6562 -8.18749,-5.6562 z m 15.90624,0 c -3.5332,0.2823 -5.84375,2.6737 -5.84375,6.0937 0,3.072 2.02626,5.2188 4.90625,5.2188 l 3.3125,0 c 2.976,0 4.53125,1.2875 4.53125,3.6875 0,2.64 -2.00725,4.4375 -5.03125,4.4375 -3.88799,0 -6.56125,-2.4033 -7.28125,-6.5313 l -0.625,0 0,6.8438 0.625,0 0,-0.2813 c 0,-0.912 0.17625,-1.2812 0.65625,-1.2812 0.912,0 3.06301,1.9687 6.375,1.9687 4.176,0 7.25,-2.9535 7.25,-6.9375 0,-3.552 -1.96925,-5.6562 -5.28125,-5.6562 l -3,0 c -3.16799,0 -5,-1.2028 -5,-3.2188 0,-2.208 1.96151,-3.6875 4.9375,-3.6875 3.696,0 5.818,1.6735 6.25,4.9375 l 0.71875,0 -0.1875,-5.5625 -0.71875,0 0,0.3438 0,0.094 c 0,0.864 -0.0725,1 -0.3125,1 -0.768,0 -2.7785,-1.4687 -5.5625,-1.4687 -0.246,0 -0.4832,-0.019 -0.71875,0 z m 15.90625,0 c -3.5332,0.2823 -5.84375,2.6737 -5.84375,6.0937 0,3.072 2.02626,5.2188 4.90625,5.2188 l 3.3125,0 c 2.976,0 4.53125,1.2875 4.53125,3.6875 0,2.64 -2.00725,4.4375 -5.03125,4.4375 -3.88799,0 -6.56125,-2.4033 -7.28125,-6.5313 l -0.625,0 0,6.8438 0.625,0 0,-0.2813 c 0,-0.912 0.17625,-1.2812 0.65625,-1.2812 0.912,0 3.06301,1.9687 6.375,1.9687 4.176,0 7.25,-2.9535 7.25,-6.9375 0,-3.552 -1.96925,-5.6562 -5.28125,-5.6562 l -3,0 c -3.16799,0 -5,-1.2028 -5,-3.2188 0,-2.208 1.96151,-3.6875 4.9375,-3.6875 3.696,0 5.818,1.6735 6.25,4.9375 l 0.71875,0 -0.1875,-5.5625 -0.71875,0 0,0.3438 0,0.094 c 0,0.864 -0.0725,1 -0.3125,1 -0.768,0 -2.7785,-1.4687 -5.5625,-1.4687 -0.246,0 -0.4832,-0.019 -0.71875,0 z m -31.90624,0.6562 c 3.936,0 4.5,3.2215 4.5,6.4375 0,0.432 -0.0948,0.4688 -0.71875,0.4688 l -8.75,0 c 0.19199,-3.696 0.55276,-6.9063 4.96875,-6.9063 z m -103.031268,2.25 c 2.063998,0 4.265252,0.02 6.28125,0.5 3.839996,0.816 5.90625,3.6455 5.90625,7.4375 0,1.728 -0.479751,3.358 -1.34375,4.75 -1.631998,2.592 -3.548006,3.2188 -9.5,3.2188 l -1.34375,0 0,-15.9063 z"
       id="path3031"
       inkscape:connector-curvature="0" />
    <g
       id="g3810"
       transform="matrix(0.70335393,0,0,0.70335393,-41.84364,234.42328)"
       style="stroke-width:2.13263897;stroke-miterlimit:4;stroke-dasharray:none">
      <path
         transform="translate(0.04316367,997.3622)"
         d="m 140.71429,126.42857 c 0,20.31619 -16.46953,36.78572 -36.78572,36.78572 -20.316185,0 -36.78571,-16.46953 -36.78571,-36.78572 0,-20.31618 16.469525,-36.78571 36.78571,-36.78571 20.31619,0 36.78572,16.46953 36.78572,36.78571 z"
         sodipodi:ry="36.785713"
         sodipodi:rx="36.785713"
         sodipodi:cy="126.42857"
         sodipodi:cx="103.92857"
         id="path2985"
         style="fill:none;stroke:#000000;stroke-width:2.13263897;stroke-miterlimit:4;stroke-opacity:1;stroke-dasharray:none"
         sodipodi:type="arc" />
      <path
         sodipodi:open="true"
         sodipodi:end="3.1415927"
         sodipodi:start="0"
         transform="matrix(1.0176821,0,0,1.0176821,-1.656711,988.14716)"
         d="m 139.92743,133.28682 c 0,6.40853 -16.17786,11.60367 -36.13426,11.60367 -19.956405,0 -36.134265,-5.19514 -36.134265,-11.60367 0,0 0,0 0,0"
         sodipodi:ry="11.603675"
         sodipodi:rx="36.134262"
         sodipodi:cy="133.28682"
         sodipodi:cx="103.79317"
         id="path2997"
         style="fill:none;stroke:#000000;stroke-width:2.09558463;stroke-linecap:square;stroke-linejoin:miter;stroke-miterlimit:4;stroke-opacity:1;stroke-dasharray:none;stroke-dashoffset:0"
         sodipodi:type="arc" />
      <g
         id="g3799"
         style="stroke-width:2.13263897;stroke-miterlimit:4;stroke-dasharray:none">
        <path
           transform="matrix(1.0113351,0,0,1.0176821,-1.0005472,973.93664)"
           d="m 137.02908,132.50133 c 1.40302,5.67557 -12.33984,10.6282 -30.69553,11.06201 -18.355688,0.43381 -34.373284,-3.81547 -35.7763,-9.49104 -0.130329,-0.52721 -0.129251,-1.05675 0.0032,-1.58391"
           sodipodi:ry="10.306498"
           sodipodi:rx="33.332863"
           sodipodi:cy="133.28682"
           sodipodi:cx="103.79317"
           id="path3777"
           style="fill:none;stroke:#000000;stroke-width:2.10215015;stroke-linecap:square;stroke-linejoin:miter;stroke-miterlimit:4;stroke-opacity:1;stroke-dasharray:none;stroke-dashoffset:0"
           sodipodi:type="arc"
           sodipodi:start="6.2068987"
           sodipodi:end="9.5023244"
           sodipodi:open="true" />
        <path
           sodipodi:type="arc"
           style="fill:none;stroke:#000000;stroke-width:2.09558463;stroke-linecap:square;stroke-linejoin:miter;stroke-miterlimit:4;stroke-opacity:1;stroke-dasharray:none;stroke-dashoffset:0"
           id="path3779"
           sodipodi:cx="103.79317"
           sodipodi:cy="133.28682"
           sodipodi:rx="31.561106"
           sodipodi:ry="9.0168018"
           d="m 134.87953,134.84487 c -3.01193,4.90494 -19.37142,8.18361 -36.539946,7.32312 -13.187144,-0.66094 -23.479634,-3.62701 -25.678832,-7.40007"
           transform="matrix(1.0176821,0,0,1.0176821,-1.656711,1005.2007)"
           sodipodi:start="0.17366608"
           sodipodi:end="2.9765851"
           sodipodi:open="true" />
        <path
           transform="matrix(0,1.0176821,-1.0176821,0,239.1689,1018.2211)"
           d="m 139.92743,133.28682 c 0,12.98863 -16.17786,23.518 -36.13426,23.518 -19.956405,0 -36.134265,-10.52937 -36.134265,-23.518 0,0 0,0 0,0"
           sodipodi:ry="23.518003"
           sodipodi:rx="36.134262"
           sodipodi:cy="133.28682"
           sodipodi:cx="103.79317"
           id="path3781"
           style="fill:none;stroke:#000000;stroke-width:2.09558463;stroke-linecap:square;stroke-linejoin:miter;stroke-miterlimit:4;stroke-opacity:1;stroke-dasharray:none;stroke-dashoffset:0"
           sodipodi:type="arc"
           sodipodi:start="0"
           sodipodi:end="3.1415927"
           sodipodi:open="true" />
        <path
           sodipodi:type="arc"
           style="fill:none;stroke:#000000;stroke-width:2.09558463;stroke-linecap:square;stroke-linejoin:miter;stroke-miterlimit:4;stroke-opacity:1;stroke-dasharray:none;stroke-dashoffset:0"
           id="path3787"
           sodipodi:cx="103.79317"
           sodipodi:cy="133.28682"
           sodipodi:rx="36.134262"
           sodipodi:ry="31.501833"
           d="m 139.92743,133.28682 c 0,17.39798 -16.17786,31.50183 -36.13426,31.50183 -19.956405,0 -36.134265,-14.10385 -36.134265,-31.50183 0,0 0,0 0,0"
           transform="matrix(0,1.0176821,-1.0176821,0,239.1689,1018.2211)"
           sodipodi:start="0"
           sodipodi:end="3.1415927"
           sodipodi:open="true" />
        <path
           sodipodi:type="arc"
           style="fill:none;stroke:#000000;stroke-width:2.09558463;stroke-linecap:square;stroke-linejoin:miter;stroke-miterlimit:4;stroke-opacity:1;stroke-dasharray:none;stroke-dashoffset:0"
           id="path3789"
           sodipodi:cx="103.79317"
           sodipodi:cy="133.28682"
           sodipodi:rx="36.134262"
           sodipodi:ry="11.733672"
           d="m 139.92743,133.28682 c 0,6.48033 -16.17786,11.73367 -36.13426,11.73367 -19.956405,0 -36.134265,-5.25334 -36.134265,-11.73367 0,0 0,0 0,0"
           transform="matrix(0,1.0176821,-1.0176821,0,239.1689,1018.2211)"
           sodipodi:start="0"
           sodipodi:end="3.1415927"
           sodipodi:open="true" />
        <path
           sodipodi:open="true"
           sodipodi:end="3.1415927"
           sodipodi:start="0"
           transform="matrix(0,-1.0176821,1.0176821,0,-32.434468,1229.478)"
           d="m 139.92743,133.28682 c 0,3.02069 -16.17786,5.46944 -36.13426,5.46944 -19.956405,0 -36.134265,-2.44875 -36.134265,-5.46944 0,0 0,0 0,0"
           sodipodi:ry="5.4694366"
           sodipodi:rx="36.134262"
           sodipodi:cy="133.28682"
           sodipodi:cx="103.79317"
           id="path3791"
           style="fill:none;stroke:#000000;stroke-width:2.09558463;stroke-linecap:square;stroke-linejoin:miter;stroke-miterlimit:4;stroke-opacity:1;stroke-dasharray:none;stroke-dashoffset:0"
           sodipodi:type="arc" />
        <path
           sodipodi:type="arc"
           style="fill:none;stroke:#000000;stroke-width:2.09558463;stroke-linecap:square;stroke-linejoin:miter;stroke-miterlimit:4;stroke-opacity:1;stroke-dasharray:none;stroke-dashoffset:0"
           id="path3793"
           sodipodi:cx="103.79317"
           sodipodi:cy="133.28682"
           sodipodi:rx="36.134262"
           sodipodi:ry="16.52397"
           d="m 139.92743,133.28682 c 0,9.12594 -16.17786,16.52397 -36.13426,16.52397 -19.956405,0 -36.134265,-7.39803 -36.134265,-16.52397 0,0 0,0 0,0"
           transform="matrix(0,-1.0176821,1.0176821,0,-32.434468,1229.478)"
           sodipodi:start="0"
           sodipodi:end="3.1415927"
           sodipodi:open="true" />
        <path
           sodipodi:open="true"
           sodipodi:end="3.1415927"
           sodipodi:start="0"
           transform="matrix(0,-1.0176821,1.0176821,0,-32.434468,1229.478)"
           d="m 139.92743,133.28682 c 0,15.16335 -16.17786,27.45567 -36.13426,27.45567 -19.956405,0 -36.134265,-12.29232 -36.134265,-27.45567 0,0 0,0 0,0"
           sodipodi:ry="27.455673"
           sodipodi:rx="36.134262"
           sodipodi:cy="133.28682"
           sodipodi:cx="103.79317"
           id="path3795"
           style="fill:none;stroke:#000000;stroke-width:2.09558463;stroke-linecap:square;stroke-linejoin:miter;stroke-miterlimit:4;stroke-opacity:1;stroke-dasharray:none;stroke-dashoffset:0"
           sodipodi:type="arc" />
        <path
           sodipodi:type="arc"
           style="fill:none;stroke:#000000;stroke-width:2.82822231;stroke-linecap:square;stroke-linejoin:miter;stroke-miterlimit:4;stroke-opacity:1;stroke-dasharray:none;stroke-dashoffset:0"
           id="path3797"
           sodipodi:cx="103.79317"
           sodipodi:cy="133.28682"
           sodipodi:rx="34.816051"
           sodipodi:ry="6.9134827"
           d="m 137.8233,131.82617 c 4.06249,3.73202 -7.88003,7.41138 -26.67435,8.21807 -18.794321,0.8067 -37.323427,-1.56475 -41.385915,-5.29677 -1.102049,-1.0124 -1.044419,-2.06104 0.168633,-3.06842"
           transform="matrix(0.75170124,0,0,0.75641882,25.947673,998.02368)"
           sodipodi:start="6.0703054"
           sodipodi:end="9.659483"
           sodipodi:open="true" />
      </g>
    </g>
  </g>
</svg>
