<?xml version="1.0" encoding="UTF-8" standalone="no"?>
<!-- Created with Inkscape (http://www.inkscape.org/) -->

<svg
   xmlns:dc="http://purl.org/dc/elements/1.1/"
   xmlns:cc="http://creativecommons.org/ns#"
   xmlns:rdf="http://www.w3.org/1999/02/22-rdf-syntax-ns#"
   xmlns:svg="http://www.w3.org/2000/svg"
   xmlns="http://www.w3.org/2000/svg"
   xmlns:sodipodi="http://sodipodi.sourceforge.net/DTD/sodipodi-0.dtd"
   xmlns:inkscape="http://www.inkscape.org/namespaces/inkscape"
   width="260"
   height="55"
   id="svg2"
   version="1.1"
   inkscape:version="0.48.5 r10040"
   sodipodi:docname="logo.svg">
  <defs
     id="defs4" />
  <sodipodi:namedview
     id="base"
     pagecolor="#ffffff"
     bordercolor="#666666"
     borderopacity="1.0"
     inkscape:pageopacity="0.0"
     inkscape:pageshadow="2"
     inkscape:zoom="7.9195959"
     inkscape:cx="142.65918"
     inkscape:cy="21.231187"
     inkscape:document-units="px"
     inkscape:current-layer="layer1"
     showgrid="false"
     inkscape:showpageshadow="false"
     inkscape:window-width="1914"
     inkscape:window-height="1055"
     inkscape:window-x="0"
     inkscape:window-y="0"
     inkscape:window-maximized="1" />
  <metadata
     id="metadata7">
    <rdf:RDF>
      <cc:Work
         rdf:about="">
        <dc:format>image/svg+xml</dc:format>
        <dc:type
           rdf:resource="http://purl.org/dc/dcmitype/StillImage" />
        <dc:title />
      </cc:Work>
    </rdf:RDF>
  </metadata>
  <g
     inkscape:label="Capa 1"
     inkscape:groupmode="layer"
     id="layer1"
     transform="translate(0,-997.3622)">
    <path
       inkscape:connector-curvature="0"
       id="path3022"
       style="font-size:48px;font-style:normal;font-variant:normal;font-weight:normal;font-stretch:normal;text-align:start;line-height:125%;letter-spacing:-2px;word-spacing:0px;writing-mode:lr-tb;text-anchor:start;fill:#214478;fill-opacity:1;stroke:none;font-family:Bodoni;-inkscape-font-specification:Bodoni"
       d="m 193.76424,1027.5803 -0.86401,0 0,2.016 c 0,2.832 -0.672,4.752 -2.06399,5.904 -1.72801,1.392 -4.56002,1.824 -11.328,1.824 l -4.80001,0 0,-30.384 5.328,0 0,-0.816 -14.64,0 0,0.816 4.656,0 0,30.384 -4.656,0 0,0.816 28.368,0 0,-10.56" />
    <path
       style="font-size:48px;font-style:normal;font-variant:normal;font-weight:normal;font-stretch:normal;text-align:start;line-height:125%;letter-spacing:-2px;word-spacing:0px;writing-mode:lr-tb;text-anchor:start;fill:#214478;fill-opacity:1;stroke:none;font-family:Bodoni;-inkscape-font-specification:Bodoni"
       d="m 235.39062,1004.3153 c -0.624,1.2 -1.20725,1.5313 -3.03125,1.5313 l -4.15625,0 0,0.75 3.6875,0 0,30.7187 -1.96875,0 -1.71875,0 -1.96875,0 0,-12.375 c 0,-4.128 -2.1655,-6.1875 -6.4375,-6.1875 -3.6,0 -6.43275,1.6178 -7.96875,4.5938 l 0,-5.0938 c -0.576,1.008 -1.24075,1.3125 -2.96875,1.3125 l -4.5625,0 0,0.8125 3.6875,0 0,16.9375 -2.78125,0 -0.90625,0 -2.8125,0 0,-19.1875 c -0.624,1.152 -1.176,1.4375 -3,1.4375 l -4.53125,0 0,0.8125 3.65625,0 0,16.9375 -3.6875,0 0,0.8125 10.375,0 0.90625,0 10.375,0 0,-0.8125 -3.75,0 0,-12.375 c 1.248,-3.216 4.22375,-5.375 7.34375,-5.375 2.256,0 3.125,0.9973 3.125,3.7813 l 0,13.9687 -3.71875,0 0,0.8125 9.625,0 1.71875,0 8.96875,0 0,-0.8125 -3.5,0 0,-6.125 1.625,-1.5937 5.90625,7.7187 -3.21875,0 0,0.8125 12.0625,0 0,-0.8125 -3.9375,0 -8.125,-10.5 3.84375,-3.75 c 1.392,-1.344 2.59225,-2.6875 4.65625,-2.6875 l 1.84375,0 0,-0.8125 -9.90625,0 0,0.8125 2.25,0 c 1.008,0 1.5,0.1328 1.5,0.4688 0,0.336 -0.94625,1.6337 -1.90625,2.5937 l -6.59375,6.5313 0,-25.6563 z m -35.8125,1.2188 c -1.2,0 -2.21875,1.0187 -2.21875,2.2187 0,1.248 1.01875,2.25 2.21875,2.25 1.248,0 2.25,-1.002 2.25,-2.25 0,-1.2 -1.002,-2.2187 -2.25,-2.2187 z"
       id="path3024"
       inkscape:connector-curvature="0" />
    <path
       style="font-size:48px;font-style:normal;font-variant:normal;font-weight:normal;font-stretch:normal;text-align:start;line-height:125%;letter-spacing:-2px;word-spacing:0px;writing-mode:lr-tb;text-anchor:start;fill:#000000;fill-opacity:1;stroke:none;font-family:Bodoni;-inkscape-font-specification:Bodoni"
       d="m 81.390625,1012.1903 c -1.199999,0 -2.21875,0.9875 -2.21875,2.1875 0,1.248 1.018751,2.2813 2.21875,2.2813 1.247999,0 2.25,-1.0333 2.25,-2.2813 0,-1.2 -1.002001,-2.1875 -2.25,-2.1875 z m -73.15625,0.5625 0,0.8125 4.65625,0 0,30.4063 -4.65625,0 0,0.8125 14.0625,0 c 5.663994,0 6.554252,-0.2118 8.90625,-1.8438 2.399998,-1.68 3.71875,-4.0597 3.71875,-6.8437 0,-5.808 -4.902005,-7.5925 -9.75,-8.3125 4.655995,-0.288 8.90625,-2.172 8.90625,-7.5 0,-7.296 -9.143005,-7.5313 -14.375,-7.5313 l -11.46875,0 z m 9.3125,0.8125 0.9375,0 c 4.319996,0 5.827752,0.3123 7.84375,1.6563 1.967998,1.296 3,3.2997 3,5.8437 0,2.544 -1.080002,4.5568 -3,5.4688 -1.535998,0.72 -2.897505,0.875 -7.9375,0.875 l -0.84375,0 0,-13.8438 z m 65.75,11.1875 c -0.623999,1.152 -1.207252,1.4375 -3.03125,1.4375 l -4.5,0 0,0.8125 3.65625,0 0,16.9688 -3.6875,0 0,0.8125 11.28125,0 10.375,0 0,-0.8125 -3.75,0 0,-12.4063 c 1.247999,-3.216 4.223756,-5.375 7.343755,-5.375 2.256,0 3.125,1.0285 3.125,3.8125 l 0,13.9688 -3.71875,0 0,0.8125 11.34375,0 0,-0.8125 -3.6875,0 0,-12.4063 c 0,-4.128 -2.1655,-6.1875 -6.4375,-6.1875 -3.599998,0 -6.432757,1.649 -7.968755,4.625 l 0,-5.0937 c -0.575999,1.008 -1.272002,1.2812 -3,1.2812 l -4.53125,0 0,0.8125 3.6875,0 0,16.9688 -2.78125,0 -3.71875,0 0,-19.2188 z m -40.78125,0.25 c -0.719999,1.056 -0.999751,1.1875 -2.34375,1.1875 l -5.25,0 0,0.8125 3.71875,0 0,12.0625 c 0,2.304 0.290001,3.2085 1.25,4.3125 1.151999,1.248 3.152502,2.0313 5.3125,2.0313 3.935996,0 6.305502,-1.5418 7.9375,-5.0938 l 0,4.4688 7.53125,0 0,-0.8125 -3.65625,0 0,-18.9688 c -0.863999,0.96 -1.352501,1.1875 -2.3125,1.1875 l -5.21875,0 0,0.8125 3.65625,0 0,10.2813 c 0,3.792 -3.474754,7.25 -7.21875,7.25 -2.495998,0 -3.40625,-1.0408 -3.40625,-3.9688 l 0,-15.5625 z m 24.25,0.1563 c -3.5332,0.2823 -5.84375,2.6737 -5.84375,6.0937 0,3.072 2.026253,5.2188 4.90625,5.2188 l 3.3125,0 c 2.975997,0 4.53125,1.2875 4.53125,3.6875 0,2.64 -2.007253,4.4375 -5.03125,4.4375 -3.887996,0 -6.561251,-2.4033 -7.28125,-6.5313 l -0.625,0 0,6.8438 0.625,0 0,-0.2813 c 0,-0.912 0.17625,-1.2812 0.65625,-1.2812 0.911999,0 3.063003,1.9687 6.375,1.9687 4.175996,0 7.25,-2.9535 7.25,-6.9375 0,-3.552 -1.969253,-5.6562 -5.28125,-5.6562 l -3,0 c -3.167997,0 -5,-1.2028 -5,-3.2188 0,-2.208 1.961503,-3.6875 4.9375,-3.6875 3.695996,0 5.818,1.6735 6.25,4.9375 l 0.71875,0 -0.1875,-5.5625 -0.71875,0 0,0.3438 0,0.094 c 0,0.864 -0.0725,1 -0.3125,1 -0.767999,0 -2.778503,-1.4687 -5.5625,-1.4687 -0.246,0 -0.483203,-0.019 -0.71875,0 z m 53.906255,0 c -4.94399,0 -9.5,4.9822 -9.5,10.4062 0,5.376 4.55925,9.8438 10.03125,9.8438 4.41599,0 7.81899,-2.7113 8.87499,-7.0313 l -0.78125,-0.125 c -1.34399,3.984 -3.882,6.375 -8.24999,6.375 -4.94399,0 -5.53125,-3.4512 -5.53125,-7.5312 0,-1.2 0.0937,-2.3625 0.0937,-3.5625 l 13.5,0 c 0.432,0 0.5625,-0.089 0.5625,-0.2813 0,-0.384 -0.3805,-1.4295 -0.8125,-2.4375 -1.63199,-3.456 -4.77949,-5.6562 -8.18749,-5.6562 z m 15.90624,0 c -3.5332,0.2823 -5.84375,2.6737 -5.84375,6.0937 0,3.072 2.02626,5.2188 4.90625,5.2188 l 3.3125,0 c 2.976,0 4.53125,1.2875 4.53125,3.6875 0,2.64 -2.00725,4.4375 -5.03125,4.4375 -3.88799,0 -6.56125,-2.4033 -7.28125,-6.5313 l -0.625,0 0,6.8438 0.625,0 0,-0.2813 c 0,-0.912 0.17625,-1.2812 0.65625,-1.2812 0.912,0 3.06301,1.9687 6.375,1.9687 4.176,0 7.25,-2.9535 7.25,-6.9375 0,-3.552 -1.96925,-5.6562 -5.28125,-5.6562 l -3,0 c -3.16799,0 -5,-1.2028 -5,-3.2188 0,-2.208 1.96151,-3.6875 4.9375,-3.6875 3.696,0 5.818,1.6735 6.25,4.9375 l 0.71875,0 -0.1875,-5.5625 -0.71875,0 0,0.3438 0,0.094 c 0,0.864 -0.0725,1 -0.3125,1 -0.768,0 -2.7785,-1.4687 -5.5625,-1.4687 -0.246,0 -0.4832,-0.019 -0.71875,0 z m 15.90625,0 c -3.5332,0.2823 -5.84375,2.6737 -5.84375,6.0937 0,3.072 2.02626,5.2188 4.90625,5.2188 l 3.3125,0 c 2.976,0 4.53125,1.2875 4.53125,3.6875 0,2.64 -2.00725,4.4375 -5.03125,4.4375 -3.88799,0 -6.56125,-2.4033 -7.28125,-6.5313 l -0.625,0 0,6.8438 0.625,0 0,-0.2813 c 0,-0.912 0.17625,-1.2812 0.65625,-1.2812 0.912,0 3.06301,1.9687 6.375,1.9687 4.176,0 7.25,-2.9535 7.25,-6.9375 0,-3.552 -1.96925,-5.6562 -5.28125,-5.6562 l -3,0 c -3.16799,0 -5,-1.2028 -5,-3.2188 0,-2.208 1.96151,-3.6875 4.9375,-3.6875 3.696,0 5.818,1.6735 6.25,4.9375 l 0.71875,0 -0.1875,-5.5625 -0.71875,0 0,0.3438 0,0.094 c 0,0.864 -0.0725,1 -0.3125,1 -0.768,0 -2.7785,-1.4687 -5.5625,-1.4687 -0.246,0 -0.4832,-0.019 -0.71875,0 z m -31.90624,0.6562 c 3.936,0 4.5,3.2215 4.5,6.4375 0,0.432 -0.0948,0.4688 -0.71875,0.4688 l -8.75,0 c 0.19199,-3.696 0.55276,-6.9063 4.96875,-6.9063 z m -103.031255,2.25 c 2.063998,0 4.265252,0.02 6.28125,0.5 3.839996,0.816 5.90625,3.6455 5.90625,7.4375 0,1.728 -0.479751,3.358 -1.34375,4.75 -1.631998,2.592 -3.548006,3.2188 -9.5,3.2188 l -1.34375,0 0,-15.9063 z"
       id="path3031"
       inkscape:connector-curvature="0" />
  </g>
</svg>
